<mxfile host="Electron" modified="2024-11-18T17:06:24.892Z" agent="Mozilla/5.0 (Windows NT 10.0; Win64; x64) AppleWebKit/537.36 (KHTML, like Gecko) draw.io/24.4.0 Chrome/120.0.6099.109 Electron/28.1.0 Safari/537.36" etag="oxrKqwjZe-xLK_PwRxx0" version="24.4.0" type="device">
  <diagram name="Page-1" id="z83b7PPcV6ZyIOXjzvce">
    <mxGraphModel dx="1028" dy="814" grid="1" gridSize="10" guides="1" tooltips="1" connect="1" arrows="1" fold="1" page="1" pageScale="1" pageWidth="1169" pageHeight="827" math="0" shadow="0">
      <root>
        <mxCell id="0" />
        <mxCell id="1" parent="0" />
        <mxCell id="Z63Cd4MSv0f7jXQqCqa3-32" value="SPI" style="edgeStyle=orthogonalEdgeStyle;rounded=0;orthogonalLoop=1;jettySize=auto;html=1;exitX=1;exitY=0.5;exitDx=0;exitDy=0;startArrow=classic;startFill=1;" parent="1" source="Z63Cd4MSv0f7jXQqCqa3-3" target="Z63Cd4MSv0f7jXQqCqa3-4" edge="1">
          <mxGeometry relative="1" as="geometry" />
        </mxCell>
        <mxCell id="wiDs4HM9fIuBYo-lTB5z-9" value="SPI" style="edgeStyle=orthogonalEdgeStyle;rounded=0;orthogonalLoop=1;jettySize=auto;html=1;exitX=0.25;exitY=0;exitDx=0;exitDy=0;entryX=0.5;entryY=1;entryDx=0;entryDy=0;" edge="1" parent="1" source="Z63Cd4MSv0f7jXQqCqa3-3" target="wiDs4HM9fIuBYo-lTB5z-7">
          <mxGeometry relative="1" as="geometry" />
        </mxCell>
        <mxCell id="Z63Cd4MSv0f7jXQqCqa3-3" value="ESP32-S3-MINI-1U" style="whiteSpace=wrap;html=1;aspect=fixed;" parent="1" vertex="1">
          <mxGeometry x="504" y="334" width="160" height="160" as="geometry" />
        </mxCell>
        <mxCell id="Z63Cd4MSv0f7jXQqCqa3-33" style="edgeStyle=orthogonalEdgeStyle;rounded=0;orthogonalLoop=1;jettySize=auto;html=1;exitX=1;exitY=0.5;exitDx=0;exitDy=0;startArrow=classic;startFill=1;" parent="1" source="Z63Cd4MSv0f7jXQqCqa3-4" target="Z63Cd4MSv0f7jXQqCqa3-17" edge="1">
          <mxGeometry relative="1" as="geometry" />
        </mxCell>
        <mxCell id="Z63Cd4MSv0f7jXQqCqa3-4" value="SX1262&lt;div&gt;LLCC68&lt;/div&gt;" style="whiteSpace=wrap;html=1;aspect=fixed;" parent="1" vertex="1">
          <mxGeometry x="740" y="374" width="80" height="80" as="geometry" />
        </mxCell>
        <mxCell id="Z63Cd4MSv0f7jXQqCqa3-21" value="USB" style="edgeStyle=orthogonalEdgeStyle;rounded=0;orthogonalLoop=1;jettySize=auto;html=1;exitX=1;exitY=0.5;exitDx=0;exitDy=0;startArrow=classic;startFill=1;" parent="1" source="Z63Cd4MSv0f7jXQqCqa3-7" target="Z63Cd4MSv0f7jXQqCqa3-3" edge="1">
          <mxGeometry relative="1" as="geometry">
            <mxPoint x="310" y="464" as="targetPoint" />
          </mxGeometry>
        </mxCell>
        <mxCell id="88yLvj8abLCUOFOeK4SU-5" style="edgeStyle=orthogonalEdgeStyle;rounded=0;orthogonalLoop=1;jettySize=auto;html=1;exitX=0;exitY=0.5;exitDx=0;exitDy=0;entryX=0.5;entryY=0;entryDx=0;entryDy=0;" parent="1" source="Z63Cd4MSv0f7jXQqCqa3-7" edge="1" target="wiDs4HM9fIuBYo-lTB5z-2">
          <mxGeometry relative="1" as="geometry">
            <mxPoint x="190" y="414" as="targetPoint" />
          </mxGeometry>
        </mxCell>
        <mxCell id="Z63Cd4MSv0f7jXQqCqa3-7" value="USB-C" style="rounded=1;whiteSpace=wrap;html=1;" parent="1" vertex="1">
          <mxGeometry x="290" y="384" width="120" height="60" as="geometry" />
        </mxCell>
        <mxCell id="Z63Cd4MSv0f7jXQqCqa3-29" style="edgeStyle=orthogonalEdgeStyle;rounded=0;orthogonalLoop=1;jettySize=auto;html=1;exitX=0.5;exitY=1;exitDx=0;exitDy=0;entryX=0.5;entryY=0;entryDx=0;entryDy=0;" parent="1" source="Z63Cd4MSv0f7jXQqCqa3-8" target="Z63Cd4MSv0f7jXQqCqa3-9" edge="1">
          <mxGeometry relative="1" as="geometry" />
        </mxCell>
        <mxCell id="Z63Cd4MSv0f7jXQqCqa3-8" value="RJ45" style="rounded=1;whiteSpace=wrap;html=1;" parent="1" vertex="1">
          <mxGeometry x="524" y="130" width="120" height="60" as="geometry" />
        </mxCell>
        <mxCell id="Z63Cd4MSv0f7jXQqCqa3-30" style="edgeStyle=orthogonalEdgeStyle;rounded=0;orthogonalLoop=1;jettySize=auto;html=1;exitX=0.5;exitY=1;exitDx=0;exitDy=0;entryX=0.5;entryY=0;entryDx=0;entryDy=0;startArrow=classic;startFill=1;" parent="1" source="Z63Cd4MSv0f7jXQqCqa3-9" target="Z63Cd4MSv0f7jXQqCqa3-3" edge="1">
          <mxGeometry relative="1" as="geometry" />
        </mxCell>
        <mxCell id="Z63Cd4MSv0f7jXQqCqa3-31" value="" style="edgeStyle=orthogonalEdgeStyle;rounded=0;orthogonalLoop=1;jettySize=auto;html=1;" parent="1" source="Z63Cd4MSv0f7jXQqCqa3-9" target="Z63Cd4MSv0f7jXQqCqa3-8" edge="1">
          <mxGeometry relative="1" as="geometry" />
        </mxCell>
        <mxCell id="Z63Cd4MSv0f7jXQqCqa3-9" value="RS485 Converter" style="rounded=0;whiteSpace=wrap;html=1;" parent="1" vertex="1">
          <mxGeometry x="524" y="230" width="120" height="60" as="geometry" />
        </mxCell>
        <mxCell id="Z63Cd4MSv0f7jXQqCqa3-17" value="LoRa Antenna" style="rounded=1;whiteSpace=wrap;html=1;" parent="1" vertex="1">
          <mxGeometry x="850" y="384" width="120" height="60" as="geometry" />
        </mxCell>
        <mxCell id="Z63Cd4MSv0f7jXQqCqa3-34" value="u.FL" style="edgeStyle=orthogonalEdgeStyle;rounded=0;orthogonalLoop=1;jettySize=auto;html=1;exitX=0;exitY=0.5;exitDx=0;exitDy=0;entryX=1;entryY=0.25;entryDx=0;entryDy=0;startArrow=classic;startFill=1;" parent="1" source="Z63Cd4MSv0f7jXQqCqa3-18" target="Z63Cd4MSv0f7jXQqCqa3-3" edge="1">
          <mxGeometry relative="1" as="geometry">
            <Array as="points">
              <mxPoint x="690" y="340" />
              <mxPoint x="690" y="374" />
            </Array>
          </mxGeometry>
        </mxCell>
        <mxCell id="Z63Cd4MSv0f7jXQqCqa3-18" value="Wifi Antenna" style="rounded=1;whiteSpace=wrap;html=1;" parent="1" vertex="1">
          <mxGeometry x="850" y="310" width="120" height="60" as="geometry" />
        </mxCell>
        <mxCell id="wiDs4HM9fIuBYo-lTB5z-6" style="edgeStyle=orthogonalEdgeStyle;rounded=0;orthogonalLoop=1;jettySize=auto;html=1;exitX=0.5;exitY=1;exitDx=0;exitDy=0;entryX=0.5;entryY=0;entryDx=0;entryDy=0;" edge="1" parent="1" source="Z63Cd4MSv0f7jXQqCqa3-20" target="88yLvj8abLCUOFOeK4SU-3">
          <mxGeometry relative="1" as="geometry" />
        </mxCell>
        <mxCell id="Z63Cd4MSv0f7jXQqCqa3-20" value="On/Off Switch" style="rounded=1;whiteSpace=wrap;html=1;" parent="1" vertex="1">
          <mxGeometry x="290" y="460" width="120" height="60" as="geometry" />
        </mxCell>
        <mxCell id="88yLvj8abLCUOFOeK4SU-3" value="DCDC Converter&lt;div&gt;3.3V 1A&lt;/div&gt;" style="rounded=0;whiteSpace=wrap;html=1;" parent="1" vertex="1">
          <mxGeometry x="290" y="570" width="120" height="60" as="geometry" />
        </mxCell>
        <mxCell id="wiDs4HM9fIuBYo-lTB5z-1" value="LiIon Battery&lt;div&gt;18650&lt;/div&gt;" style="rounded=0;whiteSpace=wrap;html=1;fillColor=#f5f5f5;fontColor=#333333;strokeColor=#666666;" vertex="1" parent="1">
          <mxGeometry x="130" y="570" width="120" height="60" as="geometry" />
        </mxCell>
        <mxCell id="wiDs4HM9fIuBYo-lTB5z-3" style="edgeStyle=orthogonalEdgeStyle;rounded=0;orthogonalLoop=1;jettySize=auto;html=1;exitX=0.5;exitY=1;exitDx=0;exitDy=0;entryX=0.5;entryY=0;entryDx=0;entryDy=0;fillColor=#f5f5f5;strokeColor=#666666;" edge="1" parent="1" source="wiDs4HM9fIuBYo-lTB5z-2" target="wiDs4HM9fIuBYo-lTB5z-1">
          <mxGeometry relative="1" as="geometry" />
        </mxCell>
        <mxCell id="wiDs4HM9fIuBYo-lTB5z-5" style="edgeStyle=orthogonalEdgeStyle;rounded=0;orthogonalLoop=1;jettySize=auto;html=1;exitX=1;exitY=0.5;exitDx=0;exitDy=0;" edge="1" parent="1" source="wiDs4HM9fIuBYo-lTB5z-2" target="Z63Cd4MSv0f7jXQqCqa3-20">
          <mxGeometry relative="1" as="geometry" />
        </mxCell>
        <mxCell id="wiDs4HM9fIuBYo-lTB5z-2" value="Li Battery Charger&lt;div&gt;(UVP, OVP, OCP)&lt;/div&gt;" style="rounded=0;whiteSpace=wrap;html=1;fillColor=#f5f5f5;fontColor=#333333;strokeColor=#666666;" vertex="1" parent="1">
          <mxGeometry x="130" y="460" width="120" height="60" as="geometry" />
        </mxCell>
        <mxCell id="wiDs4HM9fIuBYo-lTB5z-7" value="TFT Display" style="whiteSpace=wrap;html=1;aspect=fixed;" vertex="1" parent="1">
          <mxGeometry x="360" y="200" width="80" height="80" as="geometry" />
        </mxCell>
        <mxCell id="wiDs4HM9fIuBYo-lTB5z-10" style="edgeStyle=orthogonalEdgeStyle;rounded=0;orthogonalLoop=1;jettySize=auto;html=1;exitX=0.5;exitY=1;exitDx=0;exitDy=0;entryX=0.5;entryY=0;entryDx=0;entryDy=0;" edge="1" parent="1" source="wiDs4HM9fIuBYo-lTB5z-11" target="wiDs4HM9fIuBYo-lTB5z-12">
          <mxGeometry relative="1" as="geometry" />
        </mxCell>
        <mxCell id="wiDs4HM9fIuBYo-lTB5z-11" value="DC Input&lt;div&gt;Screw Terminal&lt;/div&gt;" style="rounded=1;whiteSpace=wrap;html=1;" vertex="1" parent="1">
          <mxGeometry x="130" y="130" width="120" height="60" as="geometry" />
        </mxCell>
        <mxCell id="wiDs4HM9fIuBYo-lTB5z-13" style="edgeStyle=orthogonalEdgeStyle;rounded=0;orthogonalLoop=1;jettySize=auto;html=1;exitX=0.5;exitY=1;exitDx=0;exitDy=0;" edge="1" parent="1" source="wiDs4HM9fIuBYo-lTB5z-12">
          <mxGeometry relative="1" as="geometry">
            <mxPoint x="189.9310344827586" y="410" as="targetPoint" />
          </mxGeometry>
        </mxCell>
        <mxCell id="wiDs4HM9fIuBYo-lTB5z-12" value="eFuse&lt;div&gt;24V&lt;/div&gt;" style="rounded=0;whiteSpace=wrap;html=1;" vertex="1" parent="1">
          <mxGeometry x="130" y="230" width="120" height="60" as="geometry" />
        </mxCell>
      </root>
    </mxGraphModel>
  </diagram>
</mxfile>
